<svg width="51" height="79" viewBox="0 0 51 79" fill="none" xmlns="http://www.w3.org/2000/svg">
<g clip-path="url(#clip0_4_18)">
<path d="M44.3668 30.338C44.3679 28.3966 43.9444 26.4912 43.1415 24.8242C42.3386 23.1572 41.1863 21.791 39.8069 20.8707C38.4275 19.9504 36.8727 19.5104 35.3077 19.5975C33.7427 19.6847 32.226 20.2956 30.9187 21.3655C29.0425 19.2998 26.7561 17.8904 24.2948 17.2822C21.8334 16.674 19.2857 16.8889 16.9136 17.9048C14.5414 18.9208 12.4303 20.7011 10.7972 23.0629C9.16413 25.4246 8.06794 28.2826 7.62131 31.3432C5.47409 31.5818 3.48375 32.837 2.06435 34.8478C0.644956 36.8586 -0.0942047 39.4701 0.000641347 42.1391C0.0954874 44.808 1.01704 47.3289 2.57358 49.1773C4.13011 51.0257 6.20179 52.0592 8.35762 52.063H37.6013C39.0815 52.067 40.5294 51.5275 41.7623 50.5126C42.9953 49.4977 43.9579 48.0529 44.5288 46.3606C45.0997 44.6683 45.2531 42.8043 44.9699 41.004C44.6866 39.2037 43.9793 37.5478 42.9372 36.2452C43.8723 34.4932 44.3696 32.4384 44.3668 30.338V30.338ZM35.7 23.542C36.6919 23.5424 37.6652 23.8761 38.5163 24.5074C39.3673 25.1387 40.0644 26.0441 40.5333 27.1273C41.0023 28.2104 41.2255 29.4309 41.1793 30.6587C41.133 31.8866 40.8191 33.076 40.2709 34.1003C38.821 33.3873 37.2243 33.2723 35.7175 33.7725C35.606 30.3935 34.7058 27.1272 33.1261 24.3695C33.9156 23.8339 34.8 23.5496 35.7 23.542V23.542ZM37.6125 48.1129H8.35762C7.66861 48.1279 6.9841 47.9727 6.34403 47.6563C5.70396 47.3399 5.12115 46.8687 4.62962 46.2701C4.13809 45.6716 3.74769 44.9577 3.48119 44.1702C3.21469 43.3827 3.07743 42.5373 3.07743 41.6833C3.07743 40.8294 3.21469 39.984 3.48119 39.1964C3.74769 38.4089 4.13809 37.6951 4.62962 37.0965C5.12115 36.498 5.70396 36.0268 6.34403 35.7104C6.9841 35.394 7.66861 35.2388 8.35762 35.2537C8.43514 35.2565 8.51238 35.2664 8.58871 35.2833L8.86284 35.3248C9.07516 35.352 9.28972 35.326 9.49378 35.2484C9.69784 35.1708 9.88724 35.0432 10.0508 34.8732C10.2143 34.7032 10.3486 34.4942 10.4456 34.2586C10.5427 34.0231 10.6007 33.7657 10.616 33.5019C10.7652 30.9201 11.5066 28.4449 12.7529 26.3676C13.9992 24.2904 15.6984 22.6977 17.6506 21.777C19.6027 20.8563 21.7265 20.6459 23.7719 21.1706C25.8173 21.6953 27.6992 22.9333 29.1959 24.7388C29.26 25.0166 29.3753 25.2721 29.5327 25.4853C29.69 25.6985 29.8852 25.8635 30.1027 25.9673C31.0839 27.4541 31.7946 29.1857 32.1866 31.044C32.5785 32.9022 32.6424 34.8434 32.3738 36.735C32.3216 37.1284 32.3666 37.5322 32.5031 37.8933C32.6395 38.2544 32.861 38.5558 33.1383 38.758C33.4156 38.9602 33.7358 39.0536 34.0568 39.026C34.3778 38.9984 34.6845 38.851 34.9366 38.6033C35.69 37.8438 36.6301 37.4258 37.6013 37.4183C38.1681 37.4183 38.7293 37.5567 39.253 37.8254C39.7766 38.0942 40.2524 38.4882 40.6531 38.9848C41.0539 39.4814 41.3718 40.071 41.5887 40.7199C41.8056 41.3688 41.9172 42.0643 41.9172 42.7666C41.9172 43.469 41.8056 44.1644 41.5887 44.8133C41.3718 45.4622 41.0539 46.0518 40.6531 46.5484C40.2524 47.0451 39.7766 47.439 39.253 47.7078C38.7293 47.9766 38.1681 48.1149 37.6013 48.1149L37.6125 48.1129Z" fill="white"/>
<path d="M30.4104 17.143C30.5625 17.6213 30.8591 18.0073 31.2372 18.2189C31.6153 18.4305 32.0451 18.4511 32.4352 18.2762C32.8254 18.1013 33.1451 17.7448 33.3265 17.2824C33.5079 16.82 33.5366 16.2882 33.4066 15.8L32.4217 12.4425C32.3502 12.1987 32.2407 11.9747 32.0994 11.7834C31.958 11.592 31.7877 11.437 31.598 11.3273C31.215 11.1056 30.7766 11.0816 30.3793 11.2604C29.982 11.4393 29.6582 11.8065 29.4794 12.2811C29.3005 12.7558 29.2811 13.299 29.4254 13.7914L30.4104 17.143Z" fill="white"/>
<path d="M49.7011 30.415L46.8642 29.7929C46.4478 29.702 46.0194 29.8198 45.6731 30.1204C45.3269 30.421 45.0912 30.8797 45.0178 31.3956C44.9445 31.9116 45.0396 32.4425 45.2821 32.8716C45.5246 33.3007 45.8948 33.5928 46.3112 33.6836L49.148 34.3038C49.24 34.3251 49.3334 34.3357 49.4269 34.3354C49.8257 34.3351 50.2098 34.1497 50.5036 33.8156C50.7974 33.4815 50.9794 33.0231 51.0139 32.5309C51.0483 32.0386 50.9325 31.5483 50.6895 31.1566C50.4465 30.7649 50.0938 30.5003 49.7011 30.415Z" fill="white"/>
<path d="M45.2768 24.49C45.5569 24.4904 45.8319 24.3984 46.0737 24.2234L48.5663 22.4459C48.9294 22.1821 49.1936 21.7511 49.3011 21.2469C49.4087 20.7427 49.351 20.2062 49.1405 19.7546C48.9301 19.3029 48.5841 18.9727 48.1779 18.8361C47.7717 18.6994 47.3385 18.7674 46.9726 19.0252L44.48 20.8027C44.1762 21.0201 43.9387 21.3556 43.8045 21.7573C43.6702 22.159 43.6467 22.6043 43.7375 23.0242C43.8283 23.4442 44.0284 23.8152 44.3067 24.0799C44.585 24.3446 44.926 24.488 45.2768 24.488V24.49Z" fill="white"/>
<path d="M38.9369 18.332C39.1337 18.4204 39.3427 18.4598 39.5518 18.4481C39.761 18.4364 39.9662 18.3737 40.1558 18.2636C40.3454 18.1536 40.5156 17.9983 40.6568 17.8067C40.798 17.6151 40.9073 17.3909 40.9785 17.147L41.9634 13.7895C42.1022 13.2987 42.0792 12.7598 41.8994 12.2899C41.7195 11.82 41.3974 11.457 41.0029 11.2796C40.6084 11.1023 40.1733 11.1249 39.7922 11.3427C39.411 11.5604 39.1146 11.9556 38.9672 12.4425L37.9822 15.8C37.9106 16.0439 37.8785 16.303 37.8878 16.5623C37.897 16.8216 37.9474 17.0761 38.0361 17.3112C38.1247 17.5464 38.2499 17.7576 38.4045 17.9327C38.5591 18.1079 38.74 18.2435 38.9369 18.332Z" fill="white"/>
</g>
<defs>
<clipPath id="clip0_4_18">
<rect width="51" height="79" fill="white"/>
</clipPath>
</defs>
</svg>
